<mxfile host="app.diagrams.net" modified="2023-09-27T15:52:40.722Z" agent="Mozilla/5.0 (Macintosh; Intel Mac OS X 10_15_7) AppleWebKit/537.36 (KHTML, like Gecko) Chrome/116.0.0.0 Safari/537.36" version="21.8.2" etag="wwK-WerYz4tDFiYJ78mf" type="github">
  <diagram name="Trang-1" id="zs_NAuciH6_Z1kAyO3h2">
    <mxGraphModel>
      <root>
        <mxCell id="0" />
        <mxCell id="1" parent="0" />
      </root>
    </mxGraphModel>
  </diagram>
</mxfile>
